<?xml version="1.0" standalone="no"?><!DOCTYPE svg PUBLIC "-//W3C//DTD SVG 1.1//EN" "http://www.w3.org/Graphics/SVG/1.1/DTD/svg11.dtd"><svg class="icon" width="200px" height="200.00px" viewBox="0 0 1024 1024" version="1.1" xmlns="http://www.w3.org/2000/svg"><path fill="#333333" d="M870.419126 0H153.580874C101.430955 0 59.098991 51.384884 59.098991 114.755323v726.783713c0 62.159133 40.801893 112.52397 91.676753 114.372806v45.264599c-0.063753 10.455485 5.929025 18.870875 13.260615 18.870876h100.920931c7.33159 0 13.324368-8.41539 13.324369-18.807123V956.294359h462.20894v51.448637c0 8.989167 5.929025 16.257004 13.324368 16.257004h100.920931c7.33159 0 13.324368-7.267837 13.324368-16.257004V956.294359h2.422613c52.213672 0 94.545636-51.384884 94.545636-114.755323V114.755323C964.901009 51.384884 922.569045 0 870.419126 0zM206.687088 71.722077h610.562072c44.499564 0 80.519985 33.40655 80.519985 74.59096v217.588843H126.167102V146.313037c0-41.18441 36.084174-74.59096 80.519986-74.59096z m3.378906 759.743992v-31.876479c0-17.595816 15.045698-31.876479 33.534056-31.876478h536.7999c18.552111 0 33.534056 14.280662 33.534056 31.876478v31.876479c0 17.595816-15.045698 31.876479-33.534056 31.876479H243.60005a32.76902 32.76902 0 0 1-33.534056-31.876479z m607.246918-138.152658H206.687088c-44.499564 0-80.519985-33.40655-80.519986-74.59096V427.654838h771.602043v191.067613c0.063753 41.18441-36.020421 74.59096-80.456233 74.59096zM225.111692 326.733906h47.814718c13.196862 0 23.907359-14.280662 23.907359-31.876479v-127.505914c0-17.595816-10.710497-31.876479-23.907359-31.876479H225.111692c-13.196862 0-23.907359 14.280662-23.907359 31.876479v127.505914c0 17.595816 10.710497 31.876479 23.907359 31.876479zM486.753829 326.733906h47.814718c13.196862 0 23.907359-14.280662 23.907359-31.876479v-127.505914c0-17.595816-10.710497-31.876479-23.907359-31.876479h-47.814718c-13.196862 0-23.907359 14.280662-23.907359 31.876479v127.505914c0 17.595816 10.710497 31.876479 23.907359 31.876479zM748.395966 326.733906h47.814718c13.196862 0 23.907359-14.280662 23.907359-31.876479v-127.505914c0-17.595816-10.710497-31.876479-23.907359-31.876479h-47.814718c-13.196862 0-23.907359 14.280662-23.907359 31.876479v127.505914c0 17.595816 10.710497 31.876479 23.907359 31.876479zM272.92641 464.886565H225.111692c-13.196862 0-23.907359 14.280662-23.907359 31.876478v127.505915c0 17.595816 10.710497 31.876479 23.907359 31.876478h47.814718c13.196862 0 23.907359-14.280662 23.907359-31.876478v-127.505915c0-17.595816-10.710497-31.876479-23.907359-31.876478zM534.568547 464.886565h-47.814718c-13.196862 0-23.907359 14.280662-23.907359 31.876478v127.505915c0 17.595816 10.710497 31.876479 23.907359 31.876478h47.814718c13.196862 0 23.907359-14.280662 23.907359-31.876478v-127.505915c0-17.595816-10.710497-31.876479-23.907359-31.876478zM796.210684 464.886565h-47.814718c-13.196862 0-23.907359 14.280662-23.907359 31.876478v127.505915c0 17.595816 10.710497 31.876479 23.907359 31.876478h47.814718c13.196862 0 23.907359-14.280662 23.907359-31.876478v-127.505915c0-17.595816-10.710497-31.876479-23.907359-31.876478z" /></svg>