<?xml version="1.0" standalone="no"?><!DOCTYPE svg PUBLIC "-//W3C//DTD SVG 1.1//EN" "http://www.w3.org/Graphics/SVG/1.1/DTD/svg11.dtd"><svg class="icon" width="200px" height="162.54px" viewBox="0 0 1260 1024" version="1.1" xmlns="http://www.w3.org/2000/svg"><path fill="#333333" d="M167.699692 341.070769a19.140923 19.140923 0 0 1 14.336-23.788307c18.983385-4.096 50.963692-10.24 89.796923-13.863385 75.618462-7.404308 142.099692-2.993231 197.789539 12.760615a19.219692 19.219692 0 0 1 12.839384 24.733539 18.825846 18.825846 0 0 1-22.843076 12.288c-102.715077-29.144615-225.122462-7.876923-269.784616 1.575384a18.668308 18.668308 0 0 1-22.134154-13.784615z m0 156.672a19.140923 19.140923 0 0 1 14.336-23.709538c18.983385-4.174769 50.963692-10.24 89.796923-13.942154 75.539692-7.325538 141.942154-2.993231 197.71077 12.760615a19.219692 19.219692 0 0 1 12.839384 24.733539 18.825846 18.825846 0 0 1-22.843077 12.366769c-102.715077-29.144615-225.122462-7.955692-269.784615 1.575385a18.668308 18.668308 0 0 1-22.055385-13.784616z m0 144.935385a19.140923 19.140923 0 0 1 14.336-23.788308c18.983385-4.096 50.963692-10.24 89.796923-13.942154 75.539692-7.325538 141.942154-2.993231 197.71077 12.839385a19.219692 19.219692 0 0 1 12.839384 24.733538 18.825846 18.825846 0 0 1-22.843077 12.288c-102.715077-29.144615-225.122462-7.876923-269.784615 1.575385a18.747077 18.747077 0 0 1-22.055385-13.784615z m543.192616-301.686154a19.140923 19.140923 0 0 1 14.336-23.630769 771.150769 771.150769 0 0 1 89.796923-13.942154c75.618462-7.404308 142.020923-2.993231 197.710769 12.760615a19.219692 19.219692 0 0 1 12.839385 24.733539 18.825846 18.825846 0 0 1-22.843077 12.288c-102.715077-29.144615-225.122462-7.876923-269.784616 1.575384a18.589538 18.589538 0 0 1-22.055384-13.784615z m0 156.750769a19.140923 19.140923 0 0 1 14.336-23.709538 771.150769 771.150769 0 0 1 89.796923-13.942154c75.618462-7.325538 142.020923-2.993231 197.710769 12.760615a19.219692 19.219692 0 0 1 12.839385 24.733539 18.825846 18.825846 0 0 1-22.843077 12.366769c-102.715077-29.144615-225.122462-7.955692-269.784616 1.575385a18.589538 18.589538 0 0 1-22.055384-13.784616z m0 144.935385a19.140923 19.140923 0 0 1 14.336-23.788308c19.062154-4.096 51.042462-10.24 89.796923-13.942154 75.618462-7.325538 142.020923-2.993231 197.710769 12.839385a19.219692 19.219692 0 0 1 12.839385 24.733538 18.825846 18.825846 0 0 1-22.843077 12.288c-102.715077-29.144615-225.122462-7.876923-269.784616 1.575385a18.668308 18.668308 0 0 1-22.055384-13.784615zM599.433846 203.460923a47.261538 47.261538 0 1 1-24.576-91.293538c247.808-66.717538 445.44-61.361231 591.950769 19.37723a47.261538 47.261538 0 0 1 24.418462 41.432616v260.568615a47.261538 47.261538 0 1 1-94.523077 0v-231.581538c-120.123077-55.059692-285.696-55.453538-497.270154 1.575384zM1095.286154 649.373538a47.261538 47.261538 0 1 1 94.523077 0v251.273847a47.261538 47.261538 0 0 1-61.203693 45.213538 1089.142154 1089.142154 0 0 0-84.440615-20.322461c-85.622154-17.014154-172.504615-24.891077-252.612923-18.589539-70.025846 5.513846-130.363077 21.661538-178.333538 49.624615a47.261538 47.261538 0 0 1-50.412308-1.890461c-88.221538-60.179692-257.181538-64.827077-504.910769-7.876923a47.261538 47.261538 0 0 1-57.895385-46.158769V167.463385a47.261538 47.261538 0 0 1 26.387692-42.377847C183.217231 48.049231 378.092308 48.049231 609.28 122.486154a47.261538 47.261538 0 0 1-28.908308 89.954461c-196.056615-63.015385-357.612308-67.190154-485.848615-14.414769v644.096c222.916923-45.056 388.096-39.936 496.482461 19.140923 56.162462-27.254154 121.147077-42.929231 193.142154-48.521846 89.796923-7.089231 184.950154 1.496615 278.370462 20.007385 11.342769 2.284308 22.291692 4.568615 32.768 6.931692V649.373538zM641.102769 752.167385a47.261538 47.261538 0 1 1-94.523077 0v-472.615385a47.261538 47.261538 0 1 1 94.523077 0v472.615385z" /></svg>