<?xml version="1.0" standalone="no"?><!DOCTYPE svg PUBLIC "-//W3C//DTD SVG 1.1//EN" "http://www.w3.org/Graphics/SVG/1.1/DTD/svg11.dtd"><svg class="icon" width="200px" height="200.00px" viewBox="0 0 1024 1024" version="1.1" xmlns="http://www.w3.org/2000/svg"><path fill="#333333" d="M884.85888 336.32256l-53.90336 53.90336-124.80512-36.98688-36.98688-124.80512 54.272-54.31296a175.88224 175.88224 0 0 0-163.67616 260.66944l-34.16064 18.92352a214.91712 214.91712 0 0 1 234.00448-313.9584l-0.32768 1.4336 26.2144 26.17344-72.25344 72.25344 24.33024 82.20672 82.20672 24.33024 72.25344-72.25344 26.33728 26.33728 0.28672-0.08192 0.12288 0.49152 0.86016 0.90112-0.53248 0.53248a214.91712 214.91712 0 0 1-313.09824 235.9296l18.8416-34.24256a175.88224 175.88224 0 0 0 260.01408-167.44448zM241.95072 883.01568c0.28672 0.04096-2.62144 0.77824-5.65248 4.13696l4.096-4.5056a17.94048 17.94048 0 0 0 1.55648 0.36864z m-77.16864-67.3792c3.39968-3.03104 4.096-5.9392 4.17792-5.65248a18.14528 18.14528 0 0 0 0.4096 1.55648l-4.58752 4.096zM602.5216 480.0512l29.04064 26.13248-366.22336 407.1424c-14.45888 16.05632-45.30176 9.95328-69.34528-14.09024l-43.29472-43.29472c-23.83872-23.83872-30.22848-54.76352-14.04928-69.34528l407.1424-366.1824 26.09152 28.99968-402.55488 362.12736c1.4336 4.83328 5.20192 11.01824 10.97728 16.7936L223.6416 871.6288c5.81632 5.81632 11.96032 9.54368 16.7936 10.97728l362.0864-402.55488zM168.96 809.984c-0.08192-0.28672-0.8192 2.62144-4.17792 5.65248l4.54656-4.096a18.14528 18.14528 0 0 1-0.4096-1.55648z m72.99072 73.03168c0.28672 0.04096-2.62144 0.77824-5.65248 4.13696l4.096-4.5056a17.94048 17.94048 0 0 0 1.55648 0.36864z m-61.6448-54.6816L223.6416 871.6288c5.81632 5.81632 11.96032 9.54368 16.7936 10.97728l362.0864-398.45888 29.0816 26.13248-366.22336 403.0464c-14.45888 16.05632-45.30176 9.95328-69.34528-14.09024l-43.29472-43.29472c-23.83872-23.83872-30.22848-54.76352-14.04928-69.34528l407.1424-366.1824 26.09152 28.99968-402.55488 362.12736c1.4336 4.83328 5.20192 11.01824 10.97728 16.7936z" /></svg>