<?xml version="1.0" standalone="no"?><!DOCTYPE svg PUBLIC "-//W3C//DTD SVG 1.1//EN" "http://www.w3.org/Graphics/SVG/1.1/DTD/svg11.dtd"><svg class="icon" width="200px" height="200.00px" viewBox="0 0 1024 1024" version="1.1" xmlns="http://www.w3.org/2000/svg"><path fill="#333333" d="M636.164904 792.953833c0-9.644661-6.956436-17.452487-15.522532-17.452487L403.352511 775.501346c-8.565073 0-15.521508 7.807826-15.521508 17.452487l0 40.08495L232.623082 833.038784l0 74.374918 558.733371 0 0-74.374918L636.164904 833.038784 636.164904 792.953833 636.164904 792.953833 636.164904 792.953833zM839.810001 116.586298 184.188976 116.586298c-28.921703 0-52.354392 23.416316-52.354392 52.336996L131.834584 668.191318c0 28.904307 23.431665 52.352345 52.354392 52.352345l655.622048 0c28.921703 0 52.354392-27.694759 52.354392-56.599066L892.165416 168.923294C892.165416 140.001591 868.732727 116.586298 839.810001 116.586298L839.810001 116.586298 839.810001 116.586298zM812.264645 628.556623c0 8.867972-7.207146 16.071024-16.074094 16.071024L227.809449 644.627646c-8.883321 0-16.071024-7.203052-16.071024-16.071024L211.738425 208.507848c0-8.887414 7.187703-16.075117 16.071024-16.075117l568.380078 0c8.866948 0 16.074094 7.188726 16.074094 16.075117l0 420.048775L812.264645 628.556623 812.264645 628.556623zM673.16868 606.701872l88.143503 0L761.312182 342.432023l-88.143503 0L673.16868 606.701872 673.16868 606.701872M532.138666 606.701872l88.144526 0L620.283192 257.850649l-88.144526 0L532.138666 606.701872 532.138666 606.701872M267.708158 606.701872l88.144526 0 0-95.110171-88.144526 0L267.708158 606.701872 267.708158 606.701872M391.109676 606.701872l88.142479 0L479.252155 426.990884l-88.142479 0L391.109676 606.701872 391.109676 606.701872M391.109676 606.701872" /></svg>