<?xml version="1.0" standalone="no"?><!DOCTYPE svg PUBLIC "-//W3C//DTD SVG 1.1//EN" "http://www.w3.org/Graphics/SVG/1.1/DTD/svg11.dtd"><svg class="icon" width="200px" height="200.00px" viewBox="0 0 1024 1024" version="1.1" xmlns="http://www.w3.org/2000/svg"><path fill="#333333" d="M557.376 711.552h-33.152V489.344h27.52a17.088 17.088 0 1 0 0-34.24H462.592a17.088 17.088 0 1 0 0 34.24h27.456v222.208H456.96a17.088 17.088 0 1 0 0 34.24h100.416a17.088 17.088 0 0 0 0-34.24zM512.064 94.464a299.328 299.328 0 0 0-299.008 298.944c0 75.968 28.736 148.416 79.744 202.752l98.432 127.424v119.296c0 20.928 17.024 37.952 37.952 37.952h24.64c1.088 8.448 7.552 15.168 16.32 15.168H553.6c8.704 0 15.168-6.72 16.256-15.104h22.528a38.016 38.016 0 0 0 37.952-37.952v-116.032l99.776-129.28a298.112 298.112 0 0 0 81.024-204.16 299.392 299.392 0 0 0-299.072-299.008z m188.224 477.824l-105.024 136a19.456 19.456 0 0 0-4.096 11.904v121.536l-160.768 1.216v-119.232a19.456 19.456 0 0 0-3.264-17.536L322.624 570.816a258.304 258.304 0 0 1-70.4-177.344 260.096 260.096 0 0 1 259.84-259.84 260.224 260.224 0 0 1 259.904 259.84c0 65.92-25.088 128.896-71.68 178.816z" /></svg>