<?xml version="1.0" standalone="no"?><!DOCTYPE svg PUBLIC "-//W3C//DTD SVG 1.1//EN" "http://www.w3.org/Graphics/SVG/1.1/DTD/svg11.dtd"><svg class="icon" width="200px" height="200.00px" viewBox="0 0 1024 1024" version="1.1" xmlns="http://www.w3.org/2000/svg"><path fill="#333333" d="M0 960.096256l1022.464 0 0 63.903744-1022.464 0 0-63.903744ZM0 1.536l63.903744 0 0 1022.464-63.903744 0 0-1022.464ZM223.664128 896.192512l63.904768 0 0 63.903744-63.904768 0 0-63.903744ZM351.471616 896.192512l63.903744 0 0 63.903744-63.903744 0 0-63.903744ZM479.280128 896.192512l63.903744 0 0 63.903744-63.903744 0 0-63.903744ZM607.087616 896.192512l63.904768 0 0 63.903744-63.904768 0 0-63.903744ZM734.896128 896.192512l63.904768 0 0 63.903744-63.904768 0 0-63.903744ZM862.703616 896.192512l63.903744 0 0 63.903744-63.903744 0 0-63.903744ZM63.935488 768.384l63.903744 0 0 63.903744-63.903744 0 0-63.903744ZM63.935488 640.576512l63.903744 0 0 63.903744-63.903744 0 0-63.903744ZM63.935488 512.768l63.903744 0 0 63.903744-63.903744 0 0-63.903744ZM63.935488 384.960512l63.903744 0 0 63.903744-63.903744 0 0-63.903744ZM63.935488 257.152l63.903744 0 0 63.903744-63.903744 0 0-63.903744ZM63.935488 129.344512l63.903744 0 0 63.903744-63.903744 0 0-63.903744ZM281.171968 723.700736 230.045696 685.258752 441.696256 403.32288 605.029376 533.861376 872.189952 266.497024 917.403648 311.678976 609.803264 619.482112 453.272576 494.420992ZM926.983168 544.718848 863.079424 544.718848 863.079424 321.055744 639.414272 321.055744 639.414272 257.152 926.983168 257.152Z" /></svg>