<?xml version="1.0" standalone="no"?><!DOCTYPE svg PUBLIC "-//W3C//DTD SVG 1.1//EN" "http://www.w3.org/Graphics/SVG/1.1/DTD/svg11.dtd"><svg class="icon" width="200px" height="182.53px" viewBox="0 0 1122 1024" version="1.1" xmlns="http://www.w3.org/2000/svg"><path fill="#333333" d="M245.886823 519.223257a60.672891 60.672891 0 1 1 60.672892-60.672891 60.734576 60.734576 0 0 1-60.672892 60.672891zM401.973326 519.223257a60.672891 60.672891 0 1 1 60.672892-60.672891 60.734576 60.734576 0 0 1-60.672892 60.672891zM219.337807 811.213089a38.614508 38.614508 0 0 1 0-77.216679h686.499331a39.107984 39.107984 0 0 1 39.0463 38.096358v0.382444a38.700866 38.700866 0 0 1-38.614508 38.737877z m0-143.404166a38.614508 38.614508 0 0 1 0-77.216679h686.499331c20.775345 0 38.244401 17.086611 39.0463 38.084021v0.468802a38.663856 38.663856 0 0 1-38.614508 38.676192zM991.516933 202.004458h-50.581304a36.147127 36.147127 0 0 0-34.419961 47.176319 36.147127 36.147127 0 0 0 34.419961 25.117935h50.581304a58.859367 58.859367 0 0 1 58.859367 58.859367v546.401455h-0.444129v12.336903a58.859367 58.859367 0 0 1-58.859366 58.859367H131.153621a58.859367 58.859367 0 0 1-58.859367-58.859367v-558.738358a58.859367 58.859367 0 0 1 58.859367-58.859367h659.01271c45.917955 0 65.780369-58.156163 29.448189-86.247292l-92.773514-71.726757L586.792477 8.105346a36.036095 36.036095 0 0 0-45.4985 0L402.405118 116.262978c-27.067166 20.812356-12.336903 64.151898 21.799308 64.151899a35.77702 35.77702 0 0 0 21.527897-7.204752l104.690963-80.374926a22.206426 22.206426 0 0 1 26.869776-0.086359l125.133212 94.870788a8.031324 8.031324 0 0 1-4.848403 14.42184H131.153621C58.84703 202.004458 0 261.048878 0 333.663892v558.738359c0 72.565666 58.834693 131.597749 131.141284 131.597749h860.375649c72.318928 0 131.141284-59.032083 131.141284-131.597749v-558.738359c0.037011-72.615014-58.797682-131.659434-131.141284-131.659434z" /></svg>