<?xml version="1.0" standalone="no"?><!DOCTYPE svg PUBLIC "-//W3C//DTD SVG 1.1//EN" "http://www.w3.org/Graphics/SVG/1.1/DTD/svg11.dtd"><svg class="icon" width="200px" height="200.00px" viewBox="0 0 1024 1024" version="1.1" xmlns="http://www.w3.org/2000/svg"><path fill="#333333" d="M902.2 624.1h-112v-84c0-30.9-25.1-56-56-56H538v-84h84c30.9 0 56-25.1 56-56V119.9c0-30.9-25.1-56-56-56H398c-30.9 0-56 25.1-56 56V344c0 30.9 25.1 56 56 56h84v84H285.9c-30.9 0-56 25.1-56 56v84h-112c-30.9 0-56 25.1-56 56v224.1c0 30.9 25.1 56 56 56H342c30.9 0 56-25.1 56-56v-224c0-30.9-25.1-56-56-56h-56v-84h448.2v84h-56c-30.9 0-56 25.1-56 56v224.1c0 30.9 25.1 56 56 56h224.1c30.9 0 56-25.1 56-56V680.1c-0.1-30.9-25.2-56-56.1-56zM398 344V119.9h224.1V344H398z m-56.1 336.1v224.1h-224V680.1h224z m560.3 224.1H678.1V680.1h224.1v224.1z" /></svg>