<?xml version="1.0" standalone="no"?><!DOCTYPE svg PUBLIC "-//W3C//DTD SVG 1.1//EN" "http://www.w3.org/Graphics/SVG/1.1/DTD/svg11.dtd"><svg class="icon" width="200px" height="200.00px" viewBox="0 0 1024 1024" version="1.1" xmlns="http://www.w3.org/2000/svg"><path fill="#333333" d="M681.79456 855.61856a352.44544 352.44544 0 0 1-169.66656 43.52 352.77312 352.77312 0 0 1-252.416-107.904 95.60064 95.60064 0 0 0 3.00544-100.096c-26.46016-45.94176-85.15584-61.73696-131.10272-35.2768s-61.73696 85.15584-35.2768 131.10272a96 96 0 0 0 112.29696 43.56608 417.03936 417.03936 0 0 0 303.488 132.608c70.144 0 139.52-17.72544 200.576-51.39456a32.04096 32.04096 0 0 0-30.90432-56.12544z m-554.56256-291.33312a32.06144 32.06144 0 0 0 33.21344-30.72c5.69856-156.32384 114.57536-289.82784 266.56256-326.85056 15.872 31.04256 47.872 52.48 85.12 52.48 53.0176 0.08192 96.06656-42.83904 96.14336-95.85664 0.08192-53.0176-42.83904-96.06656-95.85664-96.14336a96 96 0 0 0-93.79328 74.88c-183.26528 41.54368-315.55584 201.32352-322.176 389.12a32 32 0 0 0 30.78656 33.09056z m782.52544 104.58112c55.35232-180.05504-17.35168-374.81984-177.152-474.56256a32.02048 32.02048 0 0 0-33.98656 54.272 350.4128 350.4128 0 0 1 165.504 298.496c0 33.08544-5.12 65.34144-14.01856 96.57344a95.744 95.744 0 0 0-88.64256 47.36c-26.81344 45.73696-11.47392 104.55552 34.26304 131.36896 45.73696 26.81344 104.55552 11.47392 131.36896-34.26304l0.64-1.10592a95.78496 95.78496 0 0 0-17.97632-118.13888z" /></svg>